<svg xmlns="http://www.w3.org/2000/svg" xmlns:xlink="http://www.w3.org/1999/xlink" version="1.1" x="0px" y="0px" viewBox="0 0 51 63.75" enable-background="new 0 0 51 51" xml:space="preserve"><g><path d="M9.59981,16.42178c-0.24463,0.27197-0.33008,0.68115-0.27686,1.32715c0.01025,0.12646,0.00146,0.29834-0.00732,0.48975   c-0.03125,0.66699-0.06934,1.49707,0.46777,1.80811c0.1499,0.08691,0.34668,0.12939,0.60107,0.12939   c0.18945,0,0.39063-0.02393,0.56787-0.04492c0.09766-0.01172,0.1875-0.02246,0.26172-0.02686   c0.08643-0.00488,0.18408-0.00586,0.28906-0.00732c0.57617-0.00684,1.36523-0.01611,1.7085-0.60059   c0.16455-0.27979,0.15723-0.7168,0.15039-1.10303c-0.00195-0.10303-0.00391-0.19873-0.00098-0.27881   c0.00244-0.07813,0.01025-0.16992,0.01904-0.27002c0.04102-0.4873,0.09717-1.1543-0.29492-1.49121   c-0.00439-0.00342-0.04688-0.0376-0.05176-0.04102c-0.23779-0.17432-0.51953-0.19824-0.76367-0.19824l-0.23975,0.00293   l-0.08545-0.00195c-0.52148-0.021-1.04346-0.02295-1.56396-0.01074C10.04464,16.11221,9.78194,16.21914,9.59981,16.42178z    M11.02413,16.59658c0.29932,0,0.59912,0.00537,0.89893,0.01855l0.10693,0.00195l0.23975-0.00293   c0.19824,0,0.35352,0.01758,0.49121,0.12012c0.19678,0.16895,0.15088,0.70996,0.12061,1.06836   c-0.00928,0.10938-0.01758,0.20996-0.02051,0.29541c-0.00293,0.08691-0.00098,0.19189,0.00098,0.3042   c0.00488,0.27197,0.01172,0.68262-0.08105,0.84082c-0.20068,0.34131-0.82666,0.34863-1.28418,0.354   c-0.11279,0.00146-0.21826,0.00293-0.31055,0.0083c-0.0835,0.00439-0.18359,0.01611-0.29346,0.0293   c-0.15869,0.01904-0.33838,0.0415-0.5083,0.0415c-0.20117,0-0.30176-0.03369-0.3501-0.06201   c-0.2749-0.15918-0.2417-0.87695-0.21973-1.35254c0.01025-0.21582,0.01807-0.41064,0.00635-0.55371   c-0.03955-0.48389,0.00928-0.79541,0.15039-0.95166c0.0874-0.09766,0.2251-0.14746,0.4209-0.15186   C10.60274,16.59951,10.81368,16.59658,11.02413,16.59658z"/><path d="M15.16817,17.63515c0.00098,0,0.00244,0,0.00391,0l13.07471-0.19727c0.1377-0.00195,0.24805-0.11572,0.24609-0.25391   c-0.00195-0.13672-0.11377-0.24609-0.25-0.24609c-0.00098,0-0.00244,0-0.00391,0l-13.07471,0.19727   c-0.1377,0.00195-0.24805,0.11572-0.24609,0.25391C14.92013,17.52578,15.03194,17.63515,15.16817,17.63515z"/><path d="M15.16817,19.33486c0.00098,0,0.00244,0,0.00391,0l13.07471-0.19727c0.1377-0.00195,0.24805-0.11572,0.24609-0.25391   c-0.00195-0.13672-0.11377-0.24609-0.25-0.24609c-0.00098,0-0.00244,0-0.00391,0l-13.07471,0.19727   c-0.1377,0.00195-0.24805,0.11572-0.24609,0.25391C14.92013,19.22549,15.03194,19.33486,15.16817,19.33486z"/><path d="M10.94942,18.93887c0.03809,0.02197,0.08105,0.0332,0.12402,0.0332c0.0249,0,0.05029-0.00391,0.07471-0.01123   c0.06641-0.021,0.12109-0.06836,0.15088-0.13135c0.20654-0.43408,0.52197-0.81299,0.91113-1.09521   c0.11182-0.08105,0.13721-0.23779,0.05615-0.34912c-0.08252-0.11279-0.23926-0.13574-0.34912-0.05615   c-0.37695,0.27344-0.69434,0.62305-0.93018,1.02295c-0.1167-0.10498-0.21338-0.23242-0.28223-0.37354   c-0.06055-0.12402-0.20996-0.17383-0.33447-0.11475c-0.12402,0.06055-0.17529,0.20996-0.11475,0.33447   C10.40548,18.50576,10.65206,18.76894,10.94942,18.93887z"/><path d="M9.78341,26.7626c0.1499,0.08691,0.34668,0.12939,0.60107,0.12939c0.18945,0,0.39063-0.02393,0.56787-0.04492   c0.09766-0.01172,0.1875-0.02246,0.26172-0.02686c0.08643-0.00488,0.18408-0.00586,0.28906-0.00732   c0.57617-0.00684,1.36523-0.01611,1.7085-0.60059c0.16455-0.27979,0.15723-0.7168,0.15039-1.10303   c-0.00195-0.10303-0.00391-0.19873-0.00098-0.27881c0.00244-0.07813,0.01025-0.16992,0.01904-0.27002   c0.04102-0.4873,0.09717-1.1543-0.29492-1.49121c-0.00439-0.00342-0.04688-0.0376-0.05176-0.04102   c-0.23779-0.17432-0.51953-0.19824-0.76367-0.19824l-0.23975,0.00293l-0.08545-0.00195   c-0.52148-0.02197-1.04346-0.02295-1.56396-0.01074c-0.33594,0.00781-0.59863,0.11475-0.78076,0.31738   c-0.24463,0.27197-0.33008,0.68115-0.27686,1.32715c0.01025,0.12646,0.00146,0.29834-0.00732,0.48975   C9.28438,25.62148,9.2463,26.45156,9.78341,26.7626z M9.821,24.42373c-0.03955-0.48389,0.00928-0.79541,0.15039-0.95166   c0.0874-0.09766,0.2251-0.14746,0.4209-0.15186c0.21045-0.00488,0.42139-0.00781,0.63184-0.00781   c0.29932,0,0.59912,0.00537,0.89893,0.01855l0.10693,0.00195l0.23975-0.00293c0.19824,0,0.35352,0.01758,0.49121,0.12012   c0.19678,0.16895,0.15088,0.70996,0.12061,1.06836c-0.00928,0.10938-0.01758,0.20996-0.02051,0.29541   c-0.00293,0.08691-0.00098,0.19189,0.00098,0.3042c0.00488,0.27197,0.01172,0.68262-0.08105,0.84082   c-0.20068,0.34131-0.82666,0.34863-1.28418,0.354c-0.11279,0.00146-0.21826,0.00293-0.31055,0.0083   c-0.0835,0.00439-0.18359,0.01611-0.29346,0.0293c-0.15869,0.01904-0.33838,0.0415-0.5083,0.0415   c-0.20117,0-0.30176-0.03369-0.3501-0.06201c-0.2749-0.15918-0.2417-0.87695-0.21973-1.35254   C9.82491,24.76162,9.83272,24.5668,9.821,24.42373z"/><path d="M15.16817,24.35098c0.00098,0,0.00244,0,0.00391,0l13.07471-0.19727c0.1377-0.00195,0.24805-0.11572,0.24609-0.25391   c-0.00195-0.13672-0.11377-0.24609-0.25-0.24609c-0.00098,0-0.00244,0-0.00391,0l-13.07471,0.19727   c-0.1377,0.00195-0.24805,0.11572-0.24609,0.25391C14.92013,24.2416,15.03194,24.35098,15.16817,24.35098z"/><path d="M15.16817,26.05068c0.00098,0,0.00244,0,0.00391,0l13.07471-0.19727c0.1377-0.00195,0.24805-0.11572,0.24609-0.25391   c-0.00195-0.13672-0.11377-0.24609-0.25-0.24609c-0.00098,0-0.00244,0-0.00391,0l-13.07471,0.19727   c-0.1377,0.00195-0.24805,0.11572-0.24609,0.25391C14.92013,25.94131,15.03194,26.05068,15.16817,26.05068z"/><path d="M10.94942,25.65469c0.03809,0.02197,0.08105,0.0332,0.12402,0.0332c0.0249,0,0.05029-0.00391,0.07471-0.01123   c0.06641-0.021,0.12109-0.06836,0.15088-0.13135c0.20654-0.43408,0.52197-0.81299,0.91113-1.09521   c0.11182-0.08105,0.13721-0.23779,0.05615-0.34912c-0.08252-0.11279-0.23926-0.13623-0.34912-0.05615   c-0.37695,0.27344-0.69434,0.62305-0.93018,1.02295c-0.1167-0.10498-0.21338-0.23242-0.28223-0.37354   c-0.06055-0.12402-0.20996-0.1748-0.33447-0.11475c-0.12402,0.06055-0.17529,0.20996-0.11475,0.33447   C10.40548,25.22158,10.65206,25.48476,10.94942,25.65469z"/><path d="M10.38448,33.60781c0.18945,0,0.39063-0.02393,0.56787-0.04492c0.09766-0.01172,0.1875-0.02246,0.26172-0.02686   c0.08643-0.00488,0.18408-0.00586,0.28906-0.00732c0.57617-0.00684,1.36523-0.01611,1.7085-0.60059   c0.16455-0.27979,0.15723-0.7168,0.15039-1.10303c-0.00195-0.10303-0.00391-0.19873-0.00098-0.27881   c0.00244-0.07813,0.01025-0.16992,0.01904-0.27002c0.04102-0.4873,0.09717-1.1543-0.29492-1.49121   c-0.00439-0.00342-0.04688-0.0376-0.05176-0.04102c-0.23779-0.17432-0.51953-0.19824-0.76367-0.19824l-0.23975,0.00293   l-0.08545-0.00195c-0.52148-0.02148-1.04346-0.02295-1.56396-0.01074c-0.33594,0.00781-0.59863,0.11475-0.78076,0.31738   c-0.24463,0.27197-0.33008,0.68115-0.27686,1.32715c0.01025,0.12646,0.00146,0.29834-0.00732,0.48975   c-0.03125,0.66699-0.06934,1.49707,0.46777,1.80811C9.93331,33.56533,10.13009,33.60781,10.38448,33.60781z M9.821,31.13955   c-0.03955-0.48389,0.00928-0.79541,0.15039-0.95166c0.0874-0.09766,0.2251-0.14746,0.4209-0.15186   c0.21045-0.00488,0.42139-0.00781,0.63184-0.00781c0.29932,0,0.59912,0.00537,0.89893,0.01855l0.10693,0.00195l0.23975-0.00293   c0.19824,0,0.35352,0.01758,0.49121,0.12012c0.19678,0.16895,0.15088,0.70996,0.12061,1.06836   c-0.00928,0.10938-0.01758,0.20996-0.02051,0.29541c-0.00293,0.08691-0.00098,0.19189,0.00098,0.3042   c0.00488,0.27197,0.01172,0.68262-0.08105,0.84082c-0.20068,0.34131-0.82666,0.34863-1.28418,0.354   c-0.11279,0.00146-0.21826,0.00293-0.31055,0.0083c-0.0835,0.00439-0.18359,0.01611-0.29346,0.0293   c-0.15869,0.01904-0.33838,0.0415-0.5083,0.0415c-0.20117,0-0.30176-0.03369-0.3501-0.06201   c-0.2749-0.15918-0.2417-0.87695-0.21973-1.35254C9.82491,31.47744,9.83272,31.28262,9.821,31.13955z"/><path d="M15.16817,31.0668c0.00098,0,0.00244,0,0.00391,0l13.07471-0.19727c0.1377-0.00195,0.24805-0.11572,0.24609-0.25391   c-0.00195-0.13672-0.11377-0.24609-0.25-0.24609c-0.00098,0-0.00244,0-0.00391,0L15.16427,30.5668   c-0.1377,0.00195-0.24805,0.11572-0.24609,0.25391C14.92013,30.95742,15.03194,31.0668,15.16817,31.0668z"/><path d="M10.94942,32.37051c0.03809,0.02197,0.08105,0.0332,0.12402,0.0332c0.0249,0,0.05029-0.00391,0.07471-0.01123   c0.06641-0.021,0.12109-0.06836,0.15088-0.13135c0.20654-0.43408,0.52197-0.81299,0.91113-1.09521   c0.11182-0.08105,0.13721-0.23779,0.05615-0.34912c-0.08252-0.11328-0.23926-0.13623-0.34912-0.05615   c-0.37695,0.27344-0.69434,0.62305-0.93018,1.02295c-0.1167-0.10498-0.21338-0.23242-0.28223-0.37354   c-0.06055-0.12354-0.20996-0.17383-0.33447-0.11475c-0.12402,0.06055-0.17529,0.20996-0.11475,0.33447   C10.40548,31.9374,10.65206,32.20058,10.94942,32.37051z"/><path d="M12.29757,36.25674c-1.24219,0-2.51855,0.74805-3.03516,1.77881c-0.47852,0.95459-0.49805,2.10547-0.05371,3.15723   c0.39746,0.93994,1.10693,1.66992,1.85254,1.90527c0.21533,0.06787,0.47266,0.10254,0.76514,0.10254   c1.05908,0,2.43115-0.44922,3.00488-1.30811c0.7124-1.06641,0.97754-3.27783-0.37891-4.65625   c-0.4458-0.45361-0.93018-0.75244-1.43896-0.88867C12.78731,36.2875,12.54659,36.25674,12.29757,36.25674z M14.41524,41.61514   c-0.4541,0.6792-1.67285,1.08545-2.58887,1.08545c-0.23779,0-0.45068-0.02734-0.61475-0.0791   c-0.6001-0.18994-1.20557-0.82715-1.54248-1.62354c-0.22754-0.53857-0.5249-1.61084,0.04053-2.73877   c0.4292-0.85645,1.5415-1.50244,2.58789-1.50244c0.20557,0,0.40283,0.0249,0.58691,0.07422   c0.42139,0.1123,0.82861,0.3667,1.21143,0.75586C15.25069,38.76015,15.01778,40.71328,14.41524,41.61514z"/><path d="M2.20821,46.0624c0.12921,3.95129,1.05103,3.79077,25.53955,3.23584l4.09277-0.09229   c3.96704-0.08801,4.33576-1.89746,3.81348-5.41162c-0.20447-1.37109-0.22217-1.94452-0.10968-10.87891   c4.92798-5.76886,7.82623-9.86627,8.19464-10.34912c2.30609-3.12933,3.68823-3.58234,5.30322-6.84668   c0.11328-0.23096,0.32422-0.66064,0.18457-1.12354c-0.13306-0.41199-0.28986-0.5014-2.11816-2.09082   c-0.62695-0.5459-1.40771-1.22559-2.40967-1.34473c-0.84326-0.11981-1.19843,0.26416-1.53711,0.67725   c-4.58527,5.92456-7.46619,9.51123-7.47046,9.51691c0.14697-11.81519,0.95599-13.52234-0.62085-15.22491   c-1.28717-1.3902-3.07489-1.00201-6.95026-1.02802c-0.05585-0.45612-0.18201-0.81006-0.44086-1.09259   c-0.50879-0.55469-1.37207-0.6792-2.88867-0.72412c-0.14551-0.00439-0.60986-0.05176-0.91406-0.09668   c-0.03174-0.41992-0.15186-1.11035-0.8125-1.41943c-0.58508-0.27325-3.63-0.3465-4.27686-0.35986   c-2.1582,0-2.65771,0.6333-2.74316,1.58398c-0.00537,0.06201-0.01367,0.15381,0.0293,0.15381c0,0,0.00049,0,0.00098,0   c-0.04639,0.00684-0.16113,0.00781-0.26318,0.00879c-0.50928,0.00488-1.45752,0.01367-3.51758,0.45752   c-0.7934,0.17102-1.02264,0.49304-1.14001,1.31397C8.92281,4.99374,6.90395,5.12569,4.98702,5.3373   C2.59884,5.60098,2.56417,7.41055,2.53341,9.00674c-0.09796,5.22919-1.52405,6.84509-0.33643,36.73389L2.20821,46.0624z    M43.98458,12.41152c0.07959-0.09668,0.1543-0.18799,0.21191-0.22461c0.80542-0.47552,4.03815,2.59174,4.07568,2.70703   c0.02344,0.07715-0.88708,2.12238-3.18896,4.50049l-3.92859-3.31555C42.47384,14.38851,42.14626,14.79635,43.98458,12.41152z    M40.53823,16.86752l3.86029,3.25684c-1.71088,1.88971-5.27039,7.6507-14.03998,17.1424   c-0.89392-1.07007-0.07611-1.19073-3.11169-2.95197l4.68549-6.26849C40.54543,16.52236,35.07705,23.84402,40.53823,16.86752z    M25.48458,38.71133c-0.09625-0.10156-0.19098-0.21021-0.2854-0.3183c0.48663-1.17871,1.0899-2.37372,1.53815-3.21887   c2.96722,1.73907,1.75244,1.49243,2.9245,2.82068c-0.32422,0.30249-1.74585,1.073-3.10382,1.78119   C26.19289,39.42611,25.83077,39.07101,25.48458,38.71133z M25.61202,40.26308l-1.18604,0.6084   c0.06348-0.40332,0.18945-0.88574,0.37402-1.4292C25.06612,39.71816,25.33663,39.99306,25.61202,40.26308z M28.15407,6.10036   c3.95001,0.02563,5.27728-0.26892,6.18256,0.70862c1.31934,1.42407,0.47021,4.98718,0.42773,8.5542   c-0.03259,2.72772-0.06256,5.15155-0.09009,7.34644c-0.56244,0.75098-1.30157,1.73956-2.25629,3.01678   c0.03699-2.91882,0.0799-6.34393,0.12811-10.38959c0.02625-2.23578,0.51001-4.79047,0.22949-6.61475   c-0.0376-0.24365-0.24756-0.42383-0.49414-0.42383c-0.75537,0-1.04761,0.03809-2.94531,0.03809   c-0.39093,0-0.8324-0.00293-1.29468-0.0069C28.08315,7.45412,28.1382,6.68832,28.15407,6.10036z M11.80538,8.28408   c0.35413-1.81543,0.09045-3.56226,0.69922-3.69336c1.96045-0.42236,2.84229-0.43066,3.31592-0.43506   c0.71472-0.00714,1.13977-0.18298,1.21973-1.07275c0.0755-0.84052,1.81116-0.64362,1.96973-0.67139   c1.06055,0.02002,3.30273,0.14014,3.63086,0.26367c0.3703,0.17249,0.10779,0.96558,0.42773,1.2749   c0.2998,0.28955,1.67822,0.33447,1.69238,0.33496c1.15137,0.03369,1.91797,0.11279,2.18115,0.3999   c0.42633,0.46497,0.10248,2.14825,0.04736,5.1626c-0.00049,0.02881-0.00195,0.08936,0.01904,0.09082   c-0.03662,0.01416-0.11865,0.03027-0.29932,0.03955c-1.86603,0.09845-14.70795,0.4696-15.00977-0.37061   C11.6003,9.329,11.71895,8.725,11.80538,8.28408z M20.48849,11.14394c2.06104,0,4.17139-0.05615,6.27344-0.16699   c0.78363-0.04254,1.21008-0.31934,1.22754-1.11035c0.00336-0.18701,0.00867-0.36182,0.01385-0.53729   c0.47302,0.00409,0.92621,0.00702,1.33282,0.00702c1.44012,0,2.146-0.02557,2.50146-0.03223   c0.14001,1.66638-0.2655,3.81573-0.2915,6.021c-0.05603,4.7027-0.10486,8.56097-0.14557,11.76263   c-0.0921,0.12323-0.17346,0.23212-0.26898,0.35992c-1.64471,2.2088-2.72528,3.65118-3.45892,4.63013L15.16427,32.2665   c-0.1377,0.00195-0.24805,0.11572-0.24609,0.25391c0.00195,0.13672,0.11377,0.24609,0.25,0.24609c0.00098,0,0.00244,0,0.00391,0   l12.12158-0.18286c-1.37726,1.8382-1.0957,1.47247-1.41113,2.06665c-0.30896,0.58075-1.07227,2.08118-1.68323,3.59381   c-0.01337,0.02252-0.03595,0.03766-0.04578,0.06244c-0.17468,0.44019-0.31091,0.8418-0.4267,1.2226   c-0.35278,1.08148-0.52277,2.02411-0.24866,2.44531c0.03668,0.05695,0.0882,0.10077,0.14532,0.13904   c0.01306,0.00873,0.0199,0.0249,0.03394,0.03241c0.00159,0.00085,0.00299,0.00085,0.00458,0.00171   c0,0,0.00018,0.00018,0.00031,0.00024c0.00043,0.00018,0.00085,0.00012,0.00128,0.00031   c0.07593,0.03961,0.14618,0.05255,0.2146,0.0531c0.00586,0.00018,0.01117,0.00421,0.01703,0.00421   c0.00421,0,0.00812-0.00287,0.01233-0.00299c0.06384-0.00378,0.12653-0.02039,0.18915-0.04608   c0.00928-0.00409,0.0199-0.00232,0.02899-0.00708l0.38171-0.19574c6.00995-3.05914,5.30365-2.62164,6.76495-4.20746   c-0.04401,4.87866,0.01227,5.27576,0.20294,6.54041c0.03076,0.20557,0.06543,0.43506,0.10352,0.71387   c-4.74829,0.19556-19.81738,0.20044-25.18408,0.15576c-0.05811-1.42871-0.23145-5.81934-0.32666-9.10156   C5.55044,18.02999,6.57809,13.59286,6.74044,9.40322c1.2373-0.11133,2.55292-0.18066,3.93231-0.22992   C10.579,11.2687,12.27285,11.14394,20.48849,11.14394z M3.53341,9.02627c0.0332-1.75293,0.10938-2.53418,1.56299-2.69482   c1.85327-0.20471,3.80707-0.33337,5.95959-0.40045c-0.12982,1.67407-0.12646,1.62213-0.23206,2.16071   c-0.00452,0.02295-0.00867,0.04749-0.01318,0.07068C9.1783,8.21822,7.65517,8.30856,6.20626,8.44863   c-0.61371,0.05945-0.36835,0.33105-0.69043,4.05371c-0.33594,3.89014-0.84424,9.76904-0.44775,23.58105   c0.11426,3.92188,0.34229,9.49658,0.34814,9.59717c0.01514,0.2627,0.23096,0.46875,0.49414,0.47119   c5.11291,0.04938,22.38184,0.04541,26.26367-0.1792c0.13818-0.00781,0.2666-0.07275,0.35547-0.1792   c0.08838-0.10596,0.12891-0.24414,0.11182-0.38135c-0.34271-2.75159-0.43555-1.45007-0.35803-8.78827   c0.75427-0.83337,1.50842-1.66602,2.24615-2.51392c-0.09851,8.0365-0.07043,8.45105,0.13531,9.83197   c0.4682,3.14496,0.30743,4.19434-2.84668,4.26416l-4.09277,0.09229C3.17483,48.85506,3.29946,48.82729,3.20772,46.02969   l-0.01172-0.3291c-0.12598-3.1665-0.25244-6.35059-0.34473-9.55322C2.31631,17.59292,3.46902,12.27523,3.53341,9.02627z"/></g><text x="0" y="66" fill="#000000" font-size="5px" font-weight="bold" font-family="'Helvetica Neue', Helvetica, Arial-Unicode, Arial, Sans-serif">Created by Vectors Point</text><text x="0" y="71" fill="#000000" font-size="5px" font-weight="bold" font-family="'Helvetica Neue', Helvetica, Arial-Unicode, Arial, Sans-serif">from the Noun Project</text></svg>